<svg xmlns="http://www.w3.org/2000/svg" viewBox="0 0 799.71 241.32"><defs><style>.cls-1{fill:#00b6a4;}.cls-2{fill:#2e6978;}.cls-3{fill:#fbb255;}</style></defs><g id="Название"><g id="Впечатлений"><path d="M546.61,201V194.9a2.57,2.57,0,0,1,2.41-2.6,6.08,6.08,0,0,0,4.11-1.51q2.18-2,2.18-8.25V157.17a6.28,6.28,0,0,1,6.27-6.28h27.5a2.53,2.53,0,0,1,2.53,2.53V201.8a1.6,1.6,0,0,1-1.6,1.59h-7.87a2.53,2.53,0,0,1-2.53-2.53V164a1.6,1.6,0,0,0-1.6-1.59h-8.17a2.53,2.53,0,0,0-2.53,2.53v17.12a31,31,0,0,1-1.84,11.33,14.31,14.31,0,0,1-5,6.78,18.45,18.45,0,0,1-6.52,2.89,21.05,21.05,0,0,1-5,.46A2.51,2.51,0,0,1,546.61,201Z"/><path d="M705.06,203.56h7.86l20.61-11.91v10.91a1,1,0,0,0,1,1h10.74a0,0,0,0,0,0,0V151.9a1,1,0,0,0-1-1h-5.93a4.84,4.84,0,0,0-4.83,4.84v22.32l-17.71,10.22V151.9a1,1,0,0,0-1-1h-5.92a4.84,4.84,0,0,0-4.84,4.84v46.82A1,1,0,0,0,705.06,203.56Z"/><path d="M759.48,203.56h7.85l20.61-11.91v10.91a1,1,0,0,0,1,1h10.74a0,0,0,0,0,0,0V151.9a1,1,0,0,0-1-1h-5.92a4.84,4.84,0,0,0-4.84,4.84v22.32l-17.71,10.22V151.9a1,1,0,0,0-1-1H763.3a4.84,4.84,0,0,0-4.84,4.84v46.82A1,1,0,0,0,759.48,203.56Z"/><path d="M442.32,151h3.45a2.55,2.55,0,0,1,2.55,2.55V202a1.48,1.48,0,0,1-1.49,1.48h-8a2.55,2.55,0,0,1-2.55-2.54V186.79a.15.15,0,0,0-.18-.15,42.21,42.21,0,0,1-10.57.19c-4.37-.37-9.89-1.52-13.46-4.54s-5.36-7.21-5.36-12.57V158.64a7.67,7.67,0,0,1,7.66-7.67h1.82a2.52,2.52,0,0,1,2.52,2.52v14.44a7.25,7.25,0,0,0,1.95,5.43,7.83,7.83,0,0,0,5.17,1.91,44.36,44.36,0,0,0,8.38-.1,2.32,2.32,0,0,0,2.07-2.3V157A6,6,0,0,1,442.32,151Z"/><path d="M378,191.84h16.59a2.53,2.53,0,0,1,2.53,2.53v7.54a1.48,1.48,0,0,1-1.48,1.48h-29a2.52,2.52,0,0,1-2.53-2.52v-44a6,6,0,0,1,6-6h24.11a2.52,2.52,0,0,1,2.53,2.52v7.13a1.9,1.9,0,0,1-1.91,1.9H379c-1.6,0-2.9,2.3-2.9,3.9v.57a1.94,1.94,0,0,0,1.94,1.93h14.82a2,2,0,0,1,2,2v7.89a1.52,1.52,0,0,1-1.52,1.52H378.61a2.5,2.5,0,0,0-2.49,2.49V190A1.88,1.88,0,0,0,378,191.84Z"/><path d="M618.78,191.93h16.59a2.52,2.52,0,0,1,2.53,2.52V202a1.48,1.48,0,0,1-1.48,1.48h-29A2.52,2.52,0,0,1,604.9,201V157a6,6,0,0,1,6-6H635a2.52,2.52,0,0,1,2.52,2.53v7.12a1.9,1.9,0,0,1-1.9,1.9H619.8c-1.6,0-2.9,2.3-2.9,3.91V167a1.93,1.93,0,0,0,1.94,1.93h14.82a2,2,0,0,1,2,2v7.9a1.52,1.52,0,0,1-1.52,1.52H619.39a2.48,2.48,0,0,0-2.49,2.49v7.23A1.88,1.88,0,0,0,618.78,191.93Z"/><path d="M492.82,201.71l-2.8-8.85a1.51,1.51,0,0,0-1.44-1.06H473.4a1.52,1.52,0,0,0-1.45,1.06l-3,9.53a1.55,1.55,0,0,1-1.48,1.08H459a2.52,2.52,0,0,1-2.39-3.34l15.27-44.93a6.24,6.24,0,0,1,5.91-4.23h9a2.56,2.56,0,0,1,2.43,1.74l16.56,48.7a1.56,1.56,0,0,1-1.48,2.06h-9.09A2.51,2.51,0,0,1,492.82,201.71ZM478,180.55H484a1.52,1.52,0,0,0,1.45-2l-3-9.34a1.52,1.52,0,0,0-2.89,0l-3,9.31A1.54,1.54,0,0,0,478,180.55Z"/><path d="M684.37,151h3.23a2.59,2.59,0,0,1,2.58,2.59v48.33a1.59,1.59,0,0,1-1.59,1.58h-7.83a2.57,2.57,0,0,1-2.58-2.58v-19a1.51,1.51,0,0,0-1.52-1.51H663.18a1.51,1.51,0,0,0-1.51,1.51v20a1.59,1.59,0,0,1-1.59,1.58h-7.83a2.58,2.58,0,0,1-2.58-2.58V157.17a6.2,6.2,0,0,1,6.2-6.2h3.22a2.59,2.59,0,0,1,2.58,2.59v13.7a1.52,1.52,0,0,0,1.51,1.52h13.47a1.52,1.52,0,0,0,1.52-1.52V157.17A6.21,6.21,0,0,1,684.37,151Z"/><path d="M294.48,175.17a.31.31,0,0,0,0,.49c4.07,2.74,6.11,7.43,6.11,12.44a14.08,14.08,0,0,1-4.88,11.1,17.64,17.64,0,0,1-12.07,4.27H264.13a2.5,2.5,0,0,1-2.5-2.5V157.53a6.56,6.56,0,0,1,6.56-6.56h14A17.29,17.29,0,0,1,294,155.14,13.72,13.72,0,0,1,298.75,166C298.75,170,297.33,172.56,294.48,175.17Zm-12.3-12.95h-7a1.55,1.55,0,0,0-1.55,1.56V170a1.48,1.48,0,0,0,1.48,1.48h7.07a4.38,4.38,0,0,0,3.3-1.31,5,5,0,0,0,0-6.67A4.38,4.38,0,0,0,282.18,162.22Zm1.5,30a4.81,4.81,0,0,0,3.6-1.38,5,5,0,0,0,1.35-3.64c0-1.5,0-3.85-1.13-5.39-.76-1.05-1.67-1.26-3.82-1.26h-8.53c-1.54,0-1.52.68-1.52,1.52v8.64a1.51,1.51,0,0,0,1.52,1.51Z"/><path d="M350.75,153.53V202a1.5,1.5,0,0,1-1.5,1.49h-7.89a2.61,2.61,0,0,1-2.61-2.61V164a1.45,1.45,0,0,0-1.45-1.46H326.38a3.38,3.38,0,0,0-3.38,3.39V202a1.5,1.5,0,0,1-1.5,1.49h-7.95a2.55,2.55,0,0,1-2.55-2.55V157a6.07,6.07,0,0,1,6.07-6.07H348.2A2.56,2.56,0,0,1,350.75,153.53Z"/><path d="M544.72,153.48V161a1.55,1.55,0,0,1-1.56,1.55H532.78a1.56,1.56,0,0,0-1.56,1.57v37.83a1.55,1.55,0,0,1-1.56,1.55h-7.94a2.5,2.5,0,0,1-2.5-2.5V164.09a1.56,1.56,0,0,0-1.56-1.57h-9.44a2.5,2.5,0,0,1-2.5-2.5v-2.84a6.21,6.21,0,0,1,6.2-6.21h30.3A2.51,2.51,0,0,1,544.72,153.48Z"/><path d="M786.17,135.58a6.12,6.12,0,0,0-8.34.76,5.93,5.93,0,0,0-1.37,3.7c-.15,2.23.12,6.11,0,8.48a.13.13,0,0,0,.22.1c2-1.86,4.17-2.29,6.46-2.63a5.91,5.91,0,0,0,3-10.41Zm-1.85,4.52a1.75,1.75,0,1,1-1-1.68A1.76,1.76,0,0,1,784.32,140.1Z"/><path d="M786.17,135.58a6.12,6.12,0,0,0-8.34.76,5.91,5.91,0,0,0-1.37,3.7c-.15,2.23.12,6.11,0,8.48a.13.13,0,0,0,.22.1c2-1.86,4.17-2.29,6.46-2.63a5.91,5.91,0,0,0,3-10.41Z"/></g><g id="Чемодан"><path d="M297.2,69h3.46a2.55,2.55,0,0,1,2.54,2.55V120a1.49,1.49,0,0,1-1.48,1.49h-8A2.55,2.55,0,0,1,291.2,119V104.83a.15.15,0,0,0-.18-.15,41.74,41.74,0,0,1-10.57.19c-4.37-.36-9.89-1.51-13.46-4.54s-5.36-7.21-5.36-12.56V76.69A7.66,7.66,0,0,1,269.3,69h1.81a2.52,2.52,0,0,1,2.52,2.52V86a7.29,7.29,0,0,0,1.95,5.44,7.93,7.93,0,0,0,5.17,1.91,45.21,45.21,0,0,0,8.38-.1,2.33,2.33,0,0,0,2.07-2.31V75A6,6,0,0,1,297.2,69Z"/><path d="M330.45,110h16.6a2.53,2.53,0,0,1,2.53,2.53V120a1.49,1.49,0,0,1-1.49,1.48h-29a2.52,2.52,0,0,1-2.52-2.53V75a6,6,0,0,1,6-6h24.12a2.52,2.52,0,0,1,2.52,2.52v7.13a1.9,1.9,0,0,1-1.9,1.9H331.48c-1.61,0-2.9,2.3-2.9,3.9V85A1.93,1.93,0,0,0,330.51,87h14.83a2,2,0,0,1,2,2v7.89a1.52,1.52,0,0,1-1.52,1.52H331.07a2.48,2.48,0,0,0-2.49,2.49v7.23A1.88,1.88,0,0,0,330.45,110Z"/><path d="M376.24,93.33l-1.64,26.79a1.49,1.49,0,0,1-1.48,1.4h-9.89a2.53,2.53,0,0,1-2.52-2.72l3.21-43.46A6.82,6.82,0,0,1,370.73,69h4.21a2.58,2.58,0,0,1,2.2,1.24l12.52,20.48a1.15,1.15,0,0,0,2,0l11.27-18.45A6.83,6.83,0,0,1,408.72,69h5.76a2.58,2.58,0,0,1,2.58,2.4l3.59,48.5a1.48,1.48,0,0,1-1.48,1.6H409.1a2.52,2.52,0,0,1-2.52-2.38L405,93.32a.76.76,0,0,0-1.4-.37l-11.28,17.59a2.1,2.1,0,0,1-3.54,0L377.64,93A.76.76,0,0,0,376.24,93.33Z"/><path d="M476.25,114.69A27.3,27.3,0,0,1,429.6,95.27a27.3,27.3,0,1,1,54.6,0A26.25,26.25,0,0,1,476.25,114.69ZM446,106.52a15.87,15.87,0,0,0,21.83,0,15.17,15.17,0,0,0,4.39-11.25A15.17,15.17,0,0,0,467.81,84,15.87,15.87,0,0,0,446,84a15.17,15.17,0,0,0-4.38,11.25A15.17,15.17,0,0,0,446,106.52Z"/><path d="M536.23,110h1.52a2.55,2.55,0,0,1,2.56,2.56v14.1a1.54,1.54,0,0,1-1.54,1.54h-7.9a2.56,2.56,0,0,1-2.56-2.55v-2.55a1.54,1.54,0,0,0-1.55-1.55H502.32a1.54,1.54,0,0,0-1.55,1.55v3.57a1.53,1.53,0,0,1-1.54,1.53h-7.91a2.55,2.55,0,0,1-2.55-2.55V112.68a2.71,2.71,0,0,1,2.71-2.71h1.8a1.49,1.49,0,0,0,1.26-.68q3.68-5.88,3.68-16.72V75.66A6.64,6.64,0,0,1,504.86,69h27.31a2.52,2.52,0,0,1,2.52,2.52v36.88A1.54,1.54,0,0,0,536.23,110Zm-25.57,0H521.1a1.59,1.59,0,0,0,1.59-1.59V82.75a2.49,2.49,0,0,0-2.49-2.48h-5.91a4.07,4.07,0,0,0-4.07,4.07v8.38a43,43,0,0,1-1.92,13.94A2.49,2.49,0,0,0,510.66,110Z"/><path d="M586.12,119.75l-2.8-8.85a1.5,1.5,0,0,0-1.44-1.05H566.7a1.5,1.5,0,0,0-1.44,1.06l-3,9.52a1.55,1.55,0,0,1-1.48,1.09h-8.46a2.53,2.53,0,0,1-2.39-3.35l15.27-44.92A6.24,6.24,0,0,1,571.12,69h9a2.56,2.56,0,0,1,2.43,1.74l16.56,48.69a1.57,1.57,0,0,1-1.48,2.07h-9.09A2.53,2.53,0,0,1,586.12,119.75ZM571.35,98.6h5.92a1.52,1.52,0,0,0,1.45-2l-3-9.34a1.52,1.52,0,0,0-2.89,0l-3,9.31A1.55,1.55,0,0,0,571.35,98.6Z"/><path d="M643.42,69h3.22a2.58,2.58,0,0,1,2.59,2.58v48.33a1.59,1.59,0,0,1-1.59,1.59h-7.83a2.59,2.59,0,0,1-2.59-2.58V99.88a1.52,1.52,0,0,0-1.51-1.51H622.23a1.52,1.52,0,0,0-1.52,1.52v20a1.58,1.58,0,0,1-1.58,1.59h-7.83a2.58,2.58,0,0,1-2.58-2.58V75.21A6.19,6.19,0,0,1,614.92,69h3.22a2.58,2.58,0,0,1,2.58,2.58V85.3a1.52,1.52,0,0,0,1.52,1.52H635.7a1.52,1.52,0,0,0,1.51-1.52V75.21A6.2,6.2,0,0,1,643.42,69Z"/></g></g><g id="Логотип"><path class="cls-1" d="M205.4,197.8a139.18,139.18,0,0,0-16.16-34.31A140.11,140.11,0,0,1,19,110l-1.91.8A28,28,0,0,0,0,136.6v61.65a43.07,43.07,0,0,0,43.07,43.07H165.18a43,43,0,0,0,39.07-25A25.81,25.81,0,0,0,205.4,197.8Z"/><path class="cls-2" d="M19,110a140.11,140.11,0,0,0,170.23,53.45A140.07,140.07,0,0,0,19,110Z"/><path class="cls-3" d="M208.25,76.14a43.07,43.07,0,0,0-43.07-43.07H43.07A43,43,0,0,0,5.76,54.63,28.69,28.69,0,0,0,3.62,78.09,139.16,139.16,0,0,0,19,110a140.07,140.07,0,0,1,170.23,53.45c1.53-.63,3-1.27,4.54-2a24.52,24.52,0,0,0,14.47-22.34Z"/><path class="cls-3" d="M165.2,16.37C162.27,7.16,153,.73,142.6.73H66.32C56.55.73,47.15,7.15,44,16a6.45,6.45,0,0,0,.81,6,7.88,7.88,0,0,0,6.5,3.22h.47a7.48,7.48,0,0,0,7-4.59,8.84,8.84,0,0,1,7.55-5.18H142.6c2.35,0,6.31,1.33,7.61,5a7.62,7.62,0,0,0,7.31,4.79h.25A8,8,0,0,0,164.24,22,6.26,6.26,0,0,0,165.2,16.37Z"/></g></svg>
